<?xml version="1.0" encoding="UTF-8" standalone="no"?>
<!-- Created with Inkscape (http://www.inkscape.org/) -->

<svg
   version="1.1"
   id="svg1"
   width="666.66669"
   height="496.81332"
   viewBox="0 0 666.66669 496.81332"
   sodipodi:docname="3793116.eps"
   xmlns:inkscape="http://www.inkscape.org/namespaces/inkscape"
   xmlns:sodipodi="http://sodipodi.sourceforge.net/DTD/sodipodi-0.dtd"
   xmlns="http://www.w3.org/2000/svg"
   xmlns:svg="http://www.w3.org/2000/svg">
  <defs
     id="defs1" />
  <sodipodi:namedview
     id="namedview1"
     pagecolor="#ffffff"
     bordercolor="#000000"
     borderopacity="0.25"
     inkscape:showpageshadow="2"
     inkscape:pageopacity="0.0"
     inkscape:pagecheckerboard="0"
     inkscape:deskcolor="#d1d1d1">
    <inkscape:page
       x="0"
       y="0"
       inkscape:label="1"
       id="page1"
       width="666.66669"
       height="496.81332"
       margin="0"
       bleed="0" />
  </sodipodi:namedview>
  <g
     id="g1"
     inkscape:groupmode="layer"
     inkscape:label="1">
    <g
       id="group-R5">
      <path
         id="path2"
         d="m 0,449.129 h 5000 v 2.5 H 0 Z"
         style="fill:#e7e8e5;fill-opacity:1;fill-rule:nonzero;stroke:none"
         transform="matrix(0.13333333,0,0,-0.13333333,0,496.81333)" />
      <path
         id="path3"
         d="m 4167.79,290.672 h 331.22 v -2.5 h -331.22 v 2.5"
         style="fill:#e7e8e5;fill-opacity:1;fill-rule:nonzero;stroke:none"
         transform="matrix(0.13333333,0,0,-0.13333333,0,496.81333)" />
      <path
         id="path4"
         d="m 2927.49,289.422 h 86.93 v -2.5 h -86.93 v 2.5"
         style="fill:#e7e8e5;fill-opacity:1;fill-rule:nonzero;stroke:none"
         transform="matrix(0.13333333,0,0,-0.13333333,0,496.81333)" />
      <path
         id="path5"
         d="m 3543.33,381.039 h 614.449 v 2.5 H 3543.33 Z"
         style="fill:#e7e8e5;fill-opacity:1;fill-rule:nonzero;stroke:none"
         transform="matrix(0.13333333,0,0,-0.13333333,0,496.81333)" />
      <path
         id="path6"
         d="m 2251.47,322.012 h -126.93 v 2.5 h 126.93 v -2.5"
         style="fill:#e7e8e5;fill-opacity:1;fill-rule:nonzero;stroke:none"
         transform="matrix(0.13333333,0,0,-0.13333333,0,496.81333)" />
      <path
         id="path7"
         d="m 2035.51,322.012 h -368.33 v 2.5 h 368.33 v -2.5"
         style="fill:#e7e8e5;fill-opacity:1;fill-rule:nonzero;stroke:none"
         transform="matrix(0.13333333,0,0,-0.13333333,0,496.81333)" />
      <path
         id="path8"
         d="M 778.891,364.23 H 524.59 v 2.5 h 254.301 v -2.5"
         style="fill:#e7e8e5;fill-opacity:1;fill-rule:nonzero;stroke:none"
         transform="matrix(0.13333333,0,0,-0.13333333,0,496.81333)" />
      <path
         id="path9"
         d="M 1587.78,364.23 H 838.891 v 2.5 h 748.889 v -2.5"
         style="fill:#e7e8e5;fill-opacity:1;fill-rule:nonzero;stroke:none"
         transform="matrix(0.13333333,0,0,-0.13333333,0,496.81333)" />
      <path
         id="path10"
         d="m 439.152,3723.59 c -30.101,0 -54.582,-24.49 -54.582,-54.57 V 954.699 c 0,-30.097 24.481,-54.578 54.582,-54.578 H 2370.14 c 30.08,0 54.57,24.481 54.57,54.578 V 3669.02 c 0,30.08 -24.49,54.57 -54.57,54.57 H 439.152 M 2370.14,897.621 H 439.152 c -31.476,0 -57.082,25.598 -57.082,57.078 V 3669.02 c 0,31.46 25.606,57.07 57.082,57.07 H 2370.14 c 31.46,0 57.07,-25.61 57.07,-57.07 V 954.699 c 0,-31.48 -25.61,-57.078 -57.07,-57.078"
         style="fill:#e7e8e5;fill-opacity:1;fill-rule:nonzero;stroke:none"
         transform="matrix(0.13333333,0,0,-0.13333333,0,496.81333)" />
      <path
         id="path11"
         d="m 2602.12,3723.59 c -30.09,0 -54.57,-24.49 -54.57,-54.57 V 954.699 c 0,-30.097 24.48,-54.578 54.57,-54.578 h 1930.99 c 30.09,0 54.58,24.481 54.58,54.578 V 3669.02 c 0,30.08 -24.49,54.57 -54.58,54.57 H 2602.12 M 4533.11,897.621 H 2602.12 c -31.47,0 -57.07,25.598 -57.07,57.078 V 3669.02 c 0,31.46 25.6,57.07 57.07,57.07 h 1930.99 c 31.47,0 57.08,-25.61 57.08,-57.07 V 954.699 c 0,-31.48 -25.61,-57.078 -57.08,-57.078"
         style="fill:#e7e8e5;fill-opacity:1;fill-rule:nonzero;stroke:none"
         transform="matrix(0.13333333,0,0,-0.13333333,0,496.81333)" />
      <path
         id="path12"
         d="m 3354.43,1240.23 c -22.53,34.2 -6.51,92.89 33.35,119.14 107.77,70.97 247.74,124.32 274.53,83.64 26.8,-40.69 -78.35,-149.67 -186.12,-220.65 -39.85,-26.24 -99.24,-16.32 -121.76,17.87"
         style="fill:#dadbd8;fill-opacity:1;fill-rule:nonzero;stroke:none"
         transform="matrix(0.13333333,0,0,-0.13333333,0,496.81333)" />
      <path
         id="path13"
         d="m 3192.89,1437.67 c -160.59,0 -321.2,-100.6 -321.2,-209.35 0,-294.07 130.15,-630.769 321.2,-630.769 191.06,0 321.21,336.699 321.21,630.769 0,108.75 -160.6,209.35 -321.21,209.35"
         style="fill:#e2e2e0;fill-opacity:1;fill-rule:nonzero;stroke:none"
         transform="matrix(0.13333333,0,0,-0.13333333,0,496.81333)" />
      <path
         id="path14"
         d="m 3192.88,1437.7 c -42.07,0 -84.15,-6.93 -123.36,-19.1 43.43,-13.51 102.58,-22.39 161.72,-22.39 40.55,0 81.11,4.14 116.6,11.15 -47.66,19.11 -101.31,30.34 -154.96,30.34"
         style="fill:#dadbd8;fill-opacity:1;fill-rule:nonzero;stroke:none"
         transform="matrix(0.13333333,0,0,-0.13333333,0,496.81333)" />
      <path
         id="path15"
         d="m 3046.58,1286.59 c -1.9,40.91 -47.91,79.76 -95.58,77.53 -128.9,-6.01 -274.95,-46.04 -272.67,-94.71 2.26,-48.66 151.4,-74.92 280.31,-68.9 47.66,2.22 89.85,45.18 87.94,86.08"
         style="fill:#e2e2e0;fill-opacity:1;fill-rule:nonzero;stroke:none"
         transform="matrix(0.13333333,0,0,-0.13333333,0,496.81333)" />
      <path
         id="path16"
         d="m 3192.6,1841.99 c -182.87,-19.17 -356,-131.22 -350.28,-185.86 15.49,-147.73 176.98,-259.02 394.53,-236.21 217.55,22.81 352.45,165.16 336.96,312.9 -5.72,54.64 -198.34,128.35 -381.21,109.17"
         style="fill:#e2e2e0;fill-opacity:1;fill-rule:nonzero;stroke:none"
         transform="matrix(0.13333333,0,0,-0.13333333,0,496.81333)" />
      <path
         id="path17"
         d="m 3196.16,1808.05 c -153.45,-16.09 -298.73,-110.12 -293.93,-155.96 13,-123.97 148.51,-217.36 331.06,-198.22 182.55,19.14 295.75,138.59 282.75,262.57 -4.8,45.85 -166.43,107.69 -319.88,91.61"
         style="fill:#ededeb;fill-opacity:1;fill-rule:nonzero;stroke:none"
         transform="matrix(0.13333333,0,0,-0.13333333,0,496.81333)" />
      <path
         id="path18"
         d="m 3141.08,1623.23 c 6.27,-59.81 -24.95,-112.11 -69.73,-116.8 -44.77,-4.7 -86.15,39.99 -92.43,99.81 -6.27,59.82 24.95,112.11 69.73,116.81 44.77,4.69 86.16,-39.99 92.43,-99.82"
         style="fill:#e2e2e0;fill-opacity:1;fill-rule:nonzero;stroke:none"
         transform="matrix(0.13333333,0,0,-0.13333333,0,496.81333)" />
      <path
         id="path19"
         d="m 3126.82,1621.74 c 3.9,-37.22 -15.52,-69.76 -43.38,-72.68 -27.86,-2.92 -53.61,24.89 -57.51,62.1 -3.9,37.22 15.52,69.77 43.38,72.69 27.86,2.92 53.61,-24.88 57.51,-62.11"
         style="fill:#f3f2f1;fill-opacity:1;fill-rule:nonzero;stroke:none"
         transform="matrix(0.13333333,0,0,-0.13333333,0,496.81333)" />
      <path
         id="path20"
         d="m 3450.53,1655.67 c 6.28,-59.81 -24.94,-112.1 -69.72,-116.8 -44.77,-4.7 -86.16,39.99 -92.43,99.81 -6.27,59.82 24.95,112.12 69.72,116.81 44.78,4.7 86.16,-39.99 92.43,-99.82"
         style="fill:#e2e2e0;fill-opacity:1;fill-rule:nonzero;stroke:none"
         transform="matrix(0.13333333,0,0,-0.13333333,0,496.81333)" />
      <path
         id="path21"
         d="m 3302.64,1640.18 c 3.9,-37.23 29.65,-65.03 57.51,-62.11 27.86,2.93 47.28,35.47 43.38,72.68 -3.9,37.22 -29.65,65.02 -57.51,62.1 -27.86,-2.92 -47.28,-35.46 -43.38,-72.67"
         style="fill:#f3f2f1;fill-opacity:1;fill-rule:nonzero;stroke:none"
         transform="matrix(0.13333333,0,0,-0.13333333,0,496.81333)" />
      <path
         id="path22"
         d="m 4022.13,1241.75 c -11.5,33.29 -59.91,53.14 -98.7,39.75 -104.91,-36.25 -214.69,-103.7 -201.01,-143.3 13.69,-39.6 143.12,-25.07 248.03,11.17 38.8,13.4 63.18,59.1 51.68,92.38"
         style="fill:#f3f2f1;fill-opacity:1;fill-rule:nonzero;stroke:none"
         transform="matrix(0.13333333,0,0,-0.13333333,0,496.81333)" />
      <path
         id="path23"
         d="m 4088.5,1320.16 c 138.14,0 276.28,-86.53 276.28,-180.07 0,-252.93 -111.95,-542.539 -276.28,-542.539 -164.33,0 -276.28,289.609 -276.28,542.539 0,93.54 138.14,180.07 276.28,180.07"
         style="fill:#f3f2f1;fill-opacity:1;fill-rule:nonzero;stroke:none"
         transform="matrix(0.13333333,0,0,-0.13333333,0,496.81333)" />
      <path
         id="path24"
         d="m 4088.51,1320.19 c 36.19,0 72.39,-5.96 106.11,-16.43 -37.36,-11.63 -88.23,-19.26 -139.1,-19.26 -34.88,0 -69.76,3.56 -100.29,9.59 40.99,16.43 87.14,26.1 133.28,26.1"
         style="fill:#f3f2f1;fill-opacity:1;fill-rule:nonzero;stroke:none"
         transform="matrix(0.13333333,0,0,-0.13333333,0,496.81333)" />
      <path
         id="path25"
         d="m 4173.85,1226.82 c 13.19,32.65 61.58,51.1 99.64,35.74 102.93,-41.55 210.08,-115.6 194.4,-154.45 -15.69,-38.85 -144.21,-17.75 -247.14,23.8 -38.06,15.38 -60.08,62.25 -46.9,94.91"
         style="fill:#f3f2f1;fill-opacity:1;fill-rule:nonzero;stroke:none"
         transform="matrix(0.13333333,0,0,-0.13333333,0,496.81333)" />
      <path
         id="path26"
         d="m 4061.47,1664.4 c 157.65,12.63 321.72,-54.8 325.49,-101.9 10.21,-127.37 -108.78,-246.94 -296.32,-261.97 -187.54,-15.03 -324.07,84.05 -334.28,211.41 -3.77,47.1 147.46,139.82 305.11,152.46"
         style="fill:#f3f2f1;fill-opacity:1;fill-rule:nonzero;stroke:none"
         transform="matrix(0.13333333,0,0,-0.13333333,0,496.81333)" />
      <path
         id="path27"
         d="m 937.883,1193.54 c 10.637,30.79 55.422,49.16 91.317,36.76 97.05,-33.53 198.61,-95.93 185.96,-132.56 -12.66,-36.65 -132.41,-23.21 -229.469,10.33 -35.89,12.4 -58.453,54.67 -47.808,85.47"
         style="fill:#f3f2f1;fill-opacity:1;fill-rule:nonzero;stroke:none"
         transform="matrix(0.13333333,0,0,-0.13333333,0,496.81333)" />
      <path
         id="path28"
         d="m 876.48,1266.07 c -127.796,0 -255.597,-80.05 -255.597,-166.59 0,-234 103.566,-501.929 255.597,-501.929 152.03,0 255.6,267.929 255.6,501.929 0,86.54 -127.8,166.59 -255.6,166.59"
         style="fill:#f3f2f1;fill-opacity:1;fill-rule:nonzero;stroke:none"
         transform="matrix(0.13333333,0,0,-0.13333333,0,496.81333)" />
      <path
         id="path29"
         d="m 876.469,1266.09 c -33.485,0 -66.965,-5.51 -98.16,-15.19 34.558,-10.76 81.621,-17.81 128.683,-17.81 32.27,0 64.539,3.29 92.781,8.86 -37.921,15.2 -80.609,24.14 -123.304,24.14"
         style="fill:#f3f2f1;fill-opacity:1;fill-rule:nonzero;stroke:none"
         transform="matrix(0.13333333,0,0,-0.13333333,0,496.81333)" />
      <path
         id="path30"
         d="m 797.516,1179.72 c -12.2,30.21 -56.969,47.27 -92.18,33.05 -95.223,-38.43 -194.356,-106.93 -179.848,-142.88 14.512,-35.94 133.422,-16.41 228.641,22.02 35.211,14.22 55.586,57.59 43.387,87.81"
         style="fill:#f3f2f1;fill-opacity:1;fill-rule:nonzero;stroke:none"
         transform="matrix(0.13333333,0,0,-0.13333333,0,496.81333)" />
      <path
         id="path31"
         d="m 901.488,1584.54 c -145.847,11.69 -297.636,-50.69 -301.129,-94.27 -9.445,-117.83 100.641,-228.45 274.145,-242.36 173.506,-13.91 299.806,77.76 309.246,195.6 3.5,43.57 -136.41,129.33 -282.262,141.03"
         style="fill:#f3f2f1;fill-opacity:1;fill-rule:nonzero;stroke:none"
         transform="matrix(0.13333333,0,0,-0.13333333,0,496.81333)" />
      <path
         id="path32"
         d="m 1180.76,3194.21 c 36.21,17.86 58.08,29.89 58.08,29.89 l 6.17,51.29 -43.11,28.46 c 0,0 -23.32,-8.9 -60.35,-24.95 -84.46,-36.63 -240.034,-110.43 -351.124,-200.07 -12.172,-9.81 -23.899,-19.91 -34.863,-30.1 14.863,1.77 30.156,4.18 45.503,7.12 140.223,26.73 297.134,97.65 379.694,138.36"
         style="fill:#dadbd8;fill-opacity:1;fill-rule:nonzero;stroke:none"
         transform="matrix(0.13333333,0,0,-0.13333333,0,496.81333)" />
      <path
         id="path33"
         d="m 1261.87,3258.51 113.96,-194.56 c 0,0 -185.5,-315.36 -399.049,-400.57 144.089,151.96 266.979,407.3 266.979,407.3 l -86.51,139.37 104.62,48.46"
         style="fill:#e2e2e0;fill-opacity:1;fill-rule:nonzero;stroke:none"
         transform="matrix(0.13333333,0,0,-0.13333333,0,496.81333)" />
      <path
         id="path34"
         d="m 1251.77,3271.83 -48.33,220.23 c 0,0 -350.264,105.74 -564.928,23.4 C 847.461,3501.63 1111,3397.49 1111,3397.49 l 31.04,-161.07 109.73,35.41"
         style="fill:#e2e2e0;fill-opacity:1;fill-rule:nonzero;stroke:none"
         transform="matrix(0.13333333,0,0,-0.13333333,0,496.81333)" />
      <path
         id="path35"
         d="m 1133.27,3216.35 v 0 c -25.98,52.13 -4.58,116.03 47.56,142.01 l 176.47,87.94 c 25.89,12.9 57.62,2.27 70.52,-23.61 l 47.56,-95.44 c 12.9,-25.89 2.27,-57.62 -23.61,-70.52 l -176.49,-87.94 c -52.13,-25.98 -116.03,-4.58 -142.01,47.56"
         style="fill:#f3f2f1;fill-opacity:1;fill-rule:nonzero;stroke:none"
         transform="matrix(0.13333333,0,0,-0.13333333,0,496.81333)" />
      <path
         id="path36"
         d="m 1311.71,3292.89 -10.79,21.65 c -20.23,40.61 -3.56,90.38 37.04,110.62 l 99.96,49.8 c 20.17,10.05 44.88,1.78 54.93,-18.39 l 47.83,-95.98 c 10.05,-20.17 1.77,-44.89 -18.39,-54.93 l -99.97,-49.81 c -40.6,-20.23 -90.38,-3.56 -110.61,37.04"
         style="fill:#e7e8e5;fill-opacity:1;fill-rule:nonzero;stroke:none"
         transform="matrix(0.13333333,0,0,-0.13333333,0,496.81333)" />
      <path
         id="path37"
         d="m 1368.93,3454.02 v 0 c 46.24,87.52 155.68,121.27 243.2,75.03 l 296.26,-156.55 c 43.46,-22.96 60.22,-77.3 37.26,-120.76 l -84.66,-160.22 c -22.97,-43.45 -77.31,-60.22 -120.76,-37.25 l -296.27,156.55 c -87.51,46.24 -121.28,155.68 -75.03,243.2"
         style="fill:#e2e2e0;fill-opacity:1;fill-rule:nonzero;stroke:none"
         transform="matrix(0.13333333,0,0,-0.13333333,0,496.81333)" />
      <path
         id="path38"
         d="m 2172.66,3160.3 c 1.94,-144.19 -113.37,-262.65 -257.56,-264.59 -144.2,-1.94 -262.66,113.38 -264.6,257.57 -1.94,144.19 113.38,262.66 257.57,264.6 144.19,1.94 262.66,-113.38 264.59,-257.58"
         style="fill:#f3f2f1;fill-opacity:1;fill-rule:nonzero;stroke:none"
         transform="matrix(0.13333333,0,0,-0.13333333,0,496.81333)" />
      <path
         id="path39"
         d="m 2115.28,3014.08 c -63.9,-96.4 -175.91,-134.63 -250.19,-85.4 -74.28,49.24 -82.7,167.3 -18.8,263.7 63.91,96.4 175.92,134.63 250.2,85.39 74.28,-49.22 82.69,-167.29 18.79,-263.69"
         style="fill:#e7e8e5;fill-opacity:1;fill-rule:nonzero;stroke:none"
         transform="matrix(0.13333333,0,0,-0.13333333,0,496.81333)" />
      <path
         id="path40"
         d="m 1897.4,3062.99 c 63.63,19.61 144.53,81.87 177.88,134.27 10.98,17.25 35.79,22.49 50.56,8.34 75.78,-72.62 105.72,-159.85 200.48,-266.14 109.36,-122.65 365.46,-259.36 420.62,-393 -126.98,-87.29 -374.21,-160.21 -410.78,-303.94 -225.18,144.77 -406.51,569.77 -460.63,774.22 -5.22,19.74 2.37,40.23 21.87,46.25"
         style="fill:#e2e2e0;fill-opacity:1;fill-rule:nonzero;stroke:none"
         transform="matrix(0.13333333,0,0,-0.13333333,0,496.81333)" />
      <path
         id="path41"
         d="m 2074.45,451.629 h 563.6 c 58.25,0 78.85,77.293 28.24,106.121 -154.74,88.18 -368.1,199.262 -460.86,199.262 -180.63,0 -130.98,-305.383 -130.98,-305.383"
         style="fill:#e2e2e0;fill-opacity:1;fill-rule:nonzero;stroke:none"
         transform="matrix(0.13333333,0,0,-0.13333333,0,496.81333)" />
      <path
         id="path42"
         d="m 2016.65,484.02 c 264.75,43.71 312.08,214.832 312.08,214.832 l -302.72,-12.481 -9.36,-202.351"
         style="fill:#dadbd8;fill-opacity:1;fill-rule:nonzero;stroke:none"
         transform="matrix(0.13333333,0,0,-0.13333333,0,496.81333)" />
      <path
         id="path43"
         d="m 2572.43,1095.39 c 0,-265.089 -214.89,-479.968 -479.97,-479.968 -265.08,0 -479.97,214.879 -479.97,479.968 0,265.08 214.89,479.97 479.97,479.97 265.08,0 479.97,-214.89 479.97,-479.97"
         style="fill:#f3f2f1;fill-opacity:1;fill-rule:nonzero;stroke:none"
         transform="matrix(0.13333333,0,0,-0.13333333,0,496.81333)" />
      <path
         id="path44"
         d="m 2490.08,883.68 c -86.77,-181.93 -290.83,-280.321 -455.8,-219.75 -164.96,60.558 -228.35,257.14 -141.59,439.06 86.76,181.93 290.83,280.32 455.79,219.75 164.97,-60.55 228.36,-257.13 141.6,-439.06"
         style="fill:#e7e8e5;fill-opacity:1;fill-rule:nonzero;stroke:none"
         transform="matrix(0.13333333,0,0,-0.13333333,0,496.81333)" />
      <path
         id="path45"
         d="m 2110.77,451.629 h -563.59 c -58.26,0 -78.85,77.293 -28.24,106.121 154.74,88.18 368.09,199.262 460.85,199.262 180.63,0 130.98,-305.383 130.98,-305.383"
         style="fill:#e2e2e0;fill-opacity:1;fill-rule:nonzero;stroke:none"
         transform="matrix(0.13333333,0,0,-0.13333333,0,496.81333)" />
      <path
         id="path46"
         d="m 2918.65,2122.02 c -96.66,-172.06 -314.5,-233.17 -486.57,-136.51 -172.06,96.66 -233.18,314.5 -136.51,486.56 96.66,172.06 314.5,233.18 486.56,136.52 172.06,-96.66 233.19,-314.51 136.52,-486.57"
         style="fill:#f3f2f1;fill-opacity:1;fill-rule:nonzero;stroke:none"
         transform="matrix(0.13333333,0,0,-0.13333333,0,496.81333)" />
      <path
         id="path47"
         d="m 2750.35,1988.26 c -141.82,-70.28 -300.69,-38.67 -354.85,70.61 -54.15,109.28 16.91,254.84 158.73,325.12 141.82,70.29 300.69,38.69 354.85,-70.59 54.16,-109.28 -16.9,-254.84 -158.73,-325.14"
         style="fill:#e7e8e5;fill-opacity:1;fill-rule:nonzero;stroke:none"
         transform="matrix(0.13333333,0,0,-0.13333333,0,496.81333)" />
      <path
         id="path48"
         d="m 2105.59,1269.97 c -13.13,149.81 -152.92,248.12 -214.72,261.08 11.86,205.49 295.36,536.05 394.54,610.42 34.67,-57.34 235.55,-24.5 297.59,46.49 62.03,70.99 262.69,-11.72 212.56,-130.09 -50.14,-118.36 -445.76,-217.64 -445.76,-569.43 79.58,-64.77 110.53,-128.48 101.96,-225.22 -8.07,-70.75 -213.53,-122.76 -346.17,6.75"
         style="fill:#e2e2e0;fill-opacity:1;fill-rule:nonzero;stroke:none"
         transform="matrix(0.13333333,0,0,-0.13333333,0,496.81333)" />
      <path
         id="path49"
         d="M 4488.89,113.23 C 4488.89,50.6914 3620.82,0 2550,0 1479.18,0 611.109,50.6914 611.109,113.23 c 0,62.54 868.071,113.239 1938.891,113.239 1070.82,0 1938.89,-50.699 1938.89,-113.239"
         style="fill:#f3f2f1;fill-opacity:1;fill-rule:nonzero;stroke:none"
         transform="matrix(0.13333333,0,0,-0.13333333,0,496.81333)" />
      <path
         id="path50"
         d="m 1660.02,1269.68 c 52.14,15.8 120.93,-26.82 139.35,-87.57 49.79,-164.31 64.92,-363.008 2.9,-381.809 -62.02,-18.789 -161.28,156.531 -211.07,320.819 -18.41,60.76 16.69,132.77 68.82,148.56"
         style="fill:#17282f;fill-opacity:1;fill-rule:nonzero;stroke:none"
         transform="matrix(0.13333333,0,0,-0.13333333,0,496.81333)" />
      <path
         id="path51"
         d="m 1379.33,1414.07 c -213.66,0 -427.322,-133.82 -427.322,-278.5 0,-391.23 173.152,-839.16 427.322,-839.16 254.18,0 427.33,447.93 427.33,839.16 0,144.68 -213.66,278.5 -427.33,278.5"
         style="fill:#406fbf;fill-opacity:1;fill-rule:nonzero;stroke:none"
         transform="matrix(0.13333333,0,0,-0.13333333,0,496.81333)" />
      <path
         id="path52"
         d="m 1228.63,1392.7 c 0.07,0.02 0.15,0.04 0.23,0.06 -0.08,-0.02 -0.16,-0.04 -0.23,-0.06 m 0.3,0.08 c 48.19,13.65 99.29,21.34 150.38,21.34 45.06,0 90.11,-5.96 133.16,-16.74 -43.04,10.74 -88.1,16.69 -133.14,16.69 -51.11,0 -102.21,-7.65 -150.4,-21.29"
         style="fill:#e0e1de;fill-opacity:1;fill-rule:nonzero;stroke:none"
         transform="matrix(0.13333333,0,0,-0.13333333,0,496.81333)" />
      <path
         id="path53"
         d="m 1430.35,1358.93 c -78.69,0 -157.37,11.79 -215.15,29.78 4.45,1.38 8.93,2.71 13.43,3.99 0.07,0.02 0.15,0.04 0.23,0.06 0.02,0.01 0.05,0.02 0.07,0.02 48.19,13.64 99.29,21.29 150.4,21.29 45.04,0 90.1,-5.95 133.14,-16.69 25.15,-6.3 49.61,-14.25 72.99,-23.62 -47.21,-9.33 -101.16,-14.83 -155.11,-14.83"
         style="fill:#3b69bb;fill-opacity:1;fill-rule:nonzero;stroke:none"
         transform="matrix(0.13333333,0,0,-0.13333333,0,496.81333)" />
      <path
         id="path54"
         d="m 1045.93,1235.43 -93.973,-99.89 c 0,-110.1 13.691,-224.731 38.984,-332.509 57.079,59.051 116.479,173.449 126.799,285.279 10.91,119.28 -19.37,132.38 -71.81,147.12"
         style="fill:#17282f;fill-opacity:1;fill-rule:nonzero;stroke:none"
         transform="matrix(0.13333333,0,0,-0.13333333,0,496.81333)" />
      <path
         id="path55"
         d="m 1129.68,1272.62 c -47.72,26.27 -123.76,1.09 -154.375,-54.53 C 892.52,1067.7 836.41,874.199 893.18,842.949 c 56.777,-31.25 190.24,119.672 273.02,270.071 30.61,55.61 11.21,133.33 -36.52,159.6"
         style="fill:#406fbf;fill-opacity:1;fill-rule:nonzero;stroke:none"
         transform="matrix(0.13333333,0,0,-0.13333333,0,496.81333)" />
      <path
         id="path56"
         d="m 1444.15,1267.18 c -158.28,0 -313.63,-100.26 -313.63,-202.39 0,-293.958 128.81,-621.489 313.63,-621.489 184.83,0 313.64,327.531 313.64,621.489 0,102.13 -155.35,202.39 -313.64,202.39 z m 0,-835.481 c -191.66,0 -325.23,333.641 -325.23,633.091 0,110 158.06,213.99 325.23,213.99 167.18,0 325.24,-103.99 325.24,-213.99 0,-299.45 -133.57,-633.091 -325.24,-633.091"
         style="fill:#ffffff;fill-opacity:1;fill-rule:nonzero;stroke:none"
         transform="matrix(0.13333333,0,0,-0.13333333,0,496.81333)" />
      <path
         id="path57"
         d="m 1449.8,436.18 -11.3,2.64 c 76.68,327.469 56.19,775.43 1.55,830.06 l 8.2,8.2 c 63.5,-63.49 75.39,-525.58 1.55,-840.9"
         style="fill:#ffffff;fill-opacity:1;fill-rule:nonzero;stroke:none"
         transform="matrix(0.13333333,0,0,-0.13333333,0,496.81333)" />
      <path
         id="path58"
         d="m 1281.39,618.512 c 4.3,-6.551 4.87,-13.75 1.28,-16.121 -3.59,-2.352 -9.98,1.05 -14.27,7.589 -4.3,6.54 -4.87,13.762 -1.28,16.11 3.59,2.359 9.98,-1.039 14.27,-7.578"
         style="fill:#ffffff;fill-opacity:1;fill-rule:nonzero;stroke:none"
         transform="matrix(0.13333333,0,0,-0.13333333,0,496.81333)" />
      <path
         id="path59"
         d="m 1304.06,583.969 c 4.29,-6.547 4.86,-13.758 1.27,-16.117 -3.59,-2.352 -9.98,1.046 -14.27,7.589 -4.29,6.539 -4.86,13.75 -1.27,16.11 3.58,2.359 9.98,-1.039 14.27,-7.582"
         style="fill:#ffffff;fill-opacity:1;fill-rule:nonzero;stroke:none"
         transform="matrix(0.13333333,0,0,-0.13333333,0,496.81333)" />
      <path
         id="path60"
         d="m 1316.91,617.102 c 4.29,-6.543 4.86,-13.75 1.27,-16.114 -3.59,-2.359 -9.98,1.043 -14.27,7.594 -4.3,6.539 -4.86,13.75 -1.28,16.109 3.59,2.348 9.98,-1.05 14.28,-7.589"
         style="fill:#ffffff;fill-opacity:1;fill-rule:nonzero;stroke:none"
         transform="matrix(0.13333333,0,0,-0.13333333,0,496.81333)" />
      <path
         id="path61"
         d="m 1339.57,582.559 c 4.29,-6.539 4.87,-13.758 1.28,-16.11 -3.59,-2.359 -9.98,1.043 -14.28,7.582 -4.29,6.551 -4.86,13.75 -1.27,16.117 3.59,2.352 9.98,-1.046 14.27,-7.589"
         style="fill:#ffffff;fill-opacity:1;fill-rule:nonzero;stroke:none"
         transform="matrix(0.13333333,0,0,-0.13333333,0,496.81333)" />
      <path
         id="path62"
         d="m 1326.72,549.422 c 4.3,-6.543 4.87,-13.762 1.28,-16.113 -3.59,-2.348 -9.98,1.043 -14.27,7.582 -4.3,6.539 -4.87,13.757 -1.28,16.109 3.59,2.359 9.98,-1.031 14.27,-7.578"
         style="fill:#ffffff;fill-opacity:1;fill-rule:nonzero;stroke:none"
         transform="matrix(0.13333333,0,0,-0.13333333,0,496.81333)" />
      <path
         id="path63"
         d="m 1898.18,2420.16 c 27.75,38.83 43.82,63.57 43.82,63.57 l -22.2,56.89 -60.81,5.59 c 0,0 -19.33,-22.29 -48.96,-59.71 -67.56,-85.32 -188.47,-249.09 -254.18,-404.53 -7.21,-17.01 -13.78,-34.09 -19.52,-50.83 14.5,10.15 29.09,21.19 43.44,32.84 131.19,106.15 255.11,267.65 318.41,356.18"
         style="fill:#040606;fill-opacity:1;fill-rule:nonzero;stroke:none"
         transform="matrix(0.13333333,0,0,-0.13333333,0,496.81333)" />
      <path
         id="path64"
         d="m 1941.15,2458.87 115.13,-240.42 c 0,0 -249.57,-353.3 -509.53,-432.67 184.69,164.86 354.59,453.58 354.59,453.58 l -88.21,172.7 128.02,46.81"
         style="fill:#17282f;fill-opacity:1;fill-rule:nonzero;stroke:none"
         transform="matrix(0.13333333,0,0,-0.13333333,0,496.81333)" />
      <path
         id="path65"
         d="m 1482.6,2065.63 c -236.56,62.26 -504.752,4.39 -523.354,-66.29 -50.312,-191.12 98.214,-405.64 379.624,-479.72 281.43,-74.07 516.32,39.51 566.63,230.64 18.6,70.68 -186.33,253.09 -422.9,315.37"
         style="fill:#406fbf;fill-opacity:1;fill-rule:nonzero;stroke:none"
         transform="matrix(0.13333333,0,0,-0.13333333,0,496.81333)" />
      <path
         id="path66"
         d="m 1493.2,1544.36 c -45.14,0 -93.1,6.11 -142.77,19.19 -236.14,62.15 -360.766,242.16 -318.55,402.54 10.94,41.57 124.77,77.85 260.24,77.85 57.8,0 119.55,-6.61 178.92,-22.23 198.51,-52.26 370.48,-205.33 354.86,-264.64 -33.33,-126.64 -163.23,-212.72 -332.7,-212.71"
         style="fill:#3b69bb;fill-opacity:1;fill-rule:nonzero;stroke:none"
         transform="matrix(0.13333333,0,0,-0.13333333,0,496.81333)" />
      <path
         id="path67"
         d="m 1315.47,1817.71 c -20.37,-77.39 -83.84,-127.76 -141.77,-112.51 -57.92,15.25 -88.37,90.34 -68,167.72 20.37,77.38 83.84,127.75 141.77,112.5 57.92,-15.24 88.36,-90.33 68,-167.71"
         style="fill:#17282f;fill-opacity:1;fill-rule:nonzero;stroke:none"
         transform="matrix(0.13333333,0,0,-0.13333333,0,496.81333)" />
      <path
         id="path68"
         d="m 1012.57,2004.52 -1.51,-0.07 c -9.78,-0.89 -18.837,-10.62 -24.857,-26.7 -6.547,-17.46 -8.945,-40.21 -6.758,-64.06 2.188,-23.85 8.688,-45.78 18.301,-61.77 8.844,-14.69 19.544,-22.51 29.284,-21.71 9.78,0.89 18.84,10.62 24.86,26.69 6.54,17.46 8.94,40.21 6.76,64.06 -2.19,23.85 -8.69,45.79 -18.31,61.77 -8.38,13.95 -18.42,21.79 -27.77,21.79 z m 12.87,-184.04 c -12.96,0 -25.639,9.31 -35.963,26.47 -10.348,17.21 -17.321,40.6 -19.641,65.86 -2.32,25.27 0.285,49.53 7.332,68.33 7.473,19.97 19.195,31.66 33.002,32.92 13.8,1.25 27.46,-8.1 38.45,-26.35 10.34,-17.21 17.32,-40.6 19.63,-65.87 2.32,-25.27 -0.28,-49.53 -7.32,-68.33 -7.49,-19.96 -19.21,-31.65 -33.01,-32.91 l -2.48,-0.12"
         style="fill:#ffffff;fill-opacity:1;fill-rule:nonzero;stroke:none"
         transform="matrix(0.13333333,0,0,-0.13333333,0,496.81333)" />
      <path
         id="path69"
         d="m 1776.42,1733.72 h 0.1 z m 74.88,49.77 c -7.03,0 -15.48,-2.62 -24.57,-7.77 -16.24,-9.18 -32.69,-25.06 -46.34,-44.75 -27.02,-38.97 -34.88,-82.27 -17.17,-94.55 8.07,-5.6 21.26,-3.97 36.19,4.49 16.24,9.18 32.69,25.07 46.34,44.75 13.64,19.67 22.76,40.66 25.66,59.09 2.67,16.94 -0.42,29.87 -8.49,35.47 -3.15,2.18 -7.1,3.27 -11.62,3.27 z m -76.48,-160.04 c -6.47,0 -12.25,1.67 -17.1,5.04 -22.78,15.79 -16.3,63.22 14.74,107.99 14.45,20.85 32.04,37.77 49.52,47.65 18.54,10.49 35.05,11.94 46.44,4.02 11.4,-7.91 15.84,-23.85 12.52,-44.91 -3.12,-19.83 -12.8,-42.23 -27.26,-63.08 -14.45,-20.85 -32.04,-37.78 -49.52,-47.66 -10.65,-6.01 -20.62,-9.05 -29.34,-9.05"
         style="fill:#ffffff;fill-opacity:1;fill-rule:nonzero;stroke:none"
         transform="matrix(0.13333333,0,0,-0.13333333,0,496.81333)" />
      <path
         id="path70"
         d="m 1297.02,1822.56 c -12.67,-48.15 -52.16,-79.49 -88.2,-70 -36.04,9.48 -54.98,56.21 -42.31,104.35 12.67,48.15 52.16,79.49 88.2,70 36.04,-9.49 54.99,-56.21 42.31,-104.35"
         style="fill:#ffffff;fill-opacity:1;fill-rule:nonzero;stroke:none"
         transform="matrix(0.13333333,0,0,-0.13333333,0,496.81333)" />
      <path
         id="path71"
         d="m 1715.78,1712.33 c -20.37,-77.39 -83.84,-127.75 -141.76,-112.5 -57.93,15.24 -88.37,90.34 -68,167.71 20.37,77.38 83.84,127.75 141.76,112.51 57.92,-15.25 88.37,-90.34 68,-167.72"
         style="fill:#17282f;fill-opacity:1;fill-rule:nonzero;stroke:none"
         transform="matrix(0.13333333,0,0,-0.13333333,0,496.81333)" />
      <path
         id="path72"
         d="m 1524.46,1762.69 c -12.68,-48.15 6.27,-94.87 42.31,-104.36 36.04,-9.48 75.53,21.86 88.2,70 12.68,48.16 -6.27,94.87 -42.31,104.36 -36.04,9.49 -75.53,-21.85 -88.2,-70"
         style="fill:#ffffff;fill-opacity:1;fill-rule:nonzero;stroke:none"
         transform="matrix(0.13333333,0,0,-0.13333333,0,496.81333)" />
      <path
         id="path73"
         d="m 1829.57,2546.8 -263.19,42.29 c 0,0 -268.1,-339.44 -270.56,-611.24 105.76,223.84 334.52,468.58 334.52,468.58 l 190.62,-35.67 8.61,136.04"
         style="fill:#17282f;fill-opacity:1;fill-rule:nonzero;stroke:none"
         transform="matrix(0.13333333,0,0,-0.13333333,0,496.81333)" />
      <path
         id="path74"
         d="m 1801.23,2390.72 c -45.25,51.9 -39.82,131.39 12.08,176.64 l 175.7,153.2 c 25.77,22.47 65.24,19.76 87.71,-6 l 82.85,-95.02 c 22.46,-25.77 19.76,-65.23 -6.01,-87.7 l -175.69,-153.21 c -51.9,-45.24 -131.39,-39.81 -176.64,12.09"
         style="fill:#406fbf;fill-opacity:1;fill-rule:nonzero;stroke:none"
         transform="matrix(0.13333333,0,0,-0.13333333,0,496.81333)" />
      <path
         id="path75"
         d="m 2056.16,2498.15 c -27.26,0 -54.39,11.29 -73.6,33.32 l -18.8,21.56 c -34.85,39.96 -31.1,100.94 8.07,136.38 1.42,-26.72 7.93,-53.56 20.03,-79.14 22.52,-47.6 60.72,-83.01 105.57,-103.01 -13.07,-6.09 -27.19,-9.11 -41.27,-9.11"
         style="fill:#3b69bb;fill-opacity:1;fill-rule:nonzero;stroke:none"
         transform="matrix(0.13333333,0,0,-0.13333333,0,496.81333)" />
      <path
         id="path76"
         d="m 1991.86,2610.27 c -50.05,105.78 -4.45,233.27 101.32,283.32 l 358.08,169.42 c 52.52,24.85 115.83,2.2 140.68,-50.31 l 91.62,-193.65 c 24.85,-52.51 2.21,-115.83 -50.31,-140.68 l -358.08,-169.42 c -105.78,-50.04 -233.27,-4.46 -283.31,101.32"
         style="fill:#17282f;fill-opacity:1;fill-rule:nonzero;stroke:none"
         transform="matrix(0.13333333,0,0,-0.13333333,0,496.81333)" />
      <path
         id="path77"
         d="m 2224.16,2520.84 c -81.83,0 -160.41,46.17 -197.67,124.92 -1.31,2.77 -0.13,6.06 2.63,7.37 0.77,0.36 1.58,0.53 2.37,0.53 2.08,0 4.06,-1.18 5.01,-3.17 35.36,-74.74 109.99,-118.56 187.66,-118.56 29.65,0 59.74,6.38 88.27,19.87 l 230.59,109.1 c 5.11,-1.78 10.27,-3.42 15.45,-4.93 l -241.3,-114.17 c -30.06,-14.22 -61.78,-20.96 -93.01,-20.96"
         style="fill:#2b3c43;fill-opacity:1;fill-rule:nonzero;stroke:none"
         transform="matrix(0.13333333,0,0,-0.13333333,0,496.81333)" />
      <path
         id="path78"
         d="m 2908.34,3112.93 c 88.68,-145.59 42.53,-335.52 -103.07,-424.2 -145.6,-88.68 -335.52,-42.54 -424.2,103.07 -88.68,145.59 -42.53,335.52 103.07,424.2 145.6,88.68 335.52,42.54 424.2,-103.07"
         style="fill:#406fbf;fill-opacity:1;fill-rule:nonzero;stroke:none"
         transform="matrix(0.13333333,0,0,-0.13333333,0,496.81333)" />
      <path
         id="path79"
         d="m 2742.29,2692.02 c -2.58,0 -5.15,0.06 -7.74,0.2 -105.21,5.46 -184.77,120.57 -177.7,257.11 6.9,133.18 93.68,237.57 195.57,237.57 2.58,0 5.15,-0.06 7.75,-0.2 38.06,-1.97 72.76,-18.29 101.22,-44.79 -49.98,-7.75 -94.98,-20.18 -131.86,-37.46 -21.9,-10.27 -30.57,-36.97 -18.25,-57.78 37.41,-63.17 59.79,-181.77 46.44,-259.34 -4.09,-23.78 13.04,-45.56 37.06,-47.79 17.99,-1.67 35.79,-3.88 53.37,-6.61 -30.76,-25.9 -67.23,-40.91 -105.86,-40.91"
         style="fill:#3b69bb;fill-opacity:1;fill-rule:nonzero;stroke:none"
         transform="matrix(0.13333333,0,0,-0.13333333,0,496.81333)" />
      <path
         id="path80"
         d="m 2466.73,3041.63 c -18.87,0 -36.87,-4.59 -52.82,-14.31 -62.1,-37.82 -69.66,-139.12 -16.87,-225.8 25.68,-42.16 61.63,-74.57 101.22,-91.25 39.2,-16.5 77.26,-15.57 107.15,2.63 62.09,37.82 69.66,139.12 16.87,225.8 -39.24,64.43 -100.95,102.93 -155.55,102.93 z m 85.81,-350.06 c -18.25,0 -37.49,4.09 -56.98,12.3 -40.92,17.24 -78.02,50.64 -104.45,94.04 -54.79,89.95 -46.18,195.53 19.19,235.35 65.36,39.8 163.11,-0.98 217.91,-90.94 54.79,-89.96 46.18,-195.53 -19.19,-235.36 -16.83,-10.24 -36.02,-15.39 -56.48,-15.39"
         style="fill:#ffffff;fill-opacity:1;fill-rule:nonzero;stroke:none"
         transform="matrix(0.13333333,0,0,-0.13333333,0,496.81333)" />
      <path
         id="path81"
         d="m 2424.32,3006.72 -2.39,0.99 -1,2.41 1,2.4 c 0.89,1 2.5,1.3 3.8,0.8 l 1.09,-0.8 1,-2.4 -1,-2.41 -1.09,-0.69 -1.41,-0.3"
         style="fill:#ffffff;fill-opacity:1;fill-rule:nonzero;stroke:none"
         transform="matrix(0.13333333,0,0,-0.13333333,0,496.81333)" />
      <path
         id="path82"
         d="m 2462.33,3021.42 c 0,1.9 1.5,3.4 3.4,3.4 1.89,0 3.5,-1.5 3.5,-3.4 0,-1.9 -1.61,-3.4 -3.5,-3.4 -1.9,0 -3.4,1.5 -3.4,3.4 z m 24.29,-5.6 c -1.9,0.4 -3.1,2.2 -2.7,4.1 0.4,1.8 2.21,3 4.1,2.6 1.81,-0.4 3,-2.2 2.6,-4 -0.3,-1.7 -1.79,-2.8 -3.4,-2.8 z m -45.69,1.89 c -0.5,1.91 0.6,3.81 2.5,4.2 1.8,0.51 3.7,-0.59 4.19,-2.39 0.5,-1.81 -0.6,-3.7 -2.5,-4.2 l -0.89,-0.11 c -1.5,0 -2.9,1.01 -3.3,2.5 z m 65.89,-7.99 c -1.79,0.7 -2.7,2.7 -1.9,4.5 0.6,1.7 2.61,2.6 4.4,1.89 1.81,-0.69 2.61,-2.69 1.9,-4.49 -0.49,-1.3 -1.79,-2.21 -3.2,-2.21 z m 19.11,-9.2 c -1.61,0.9 -2.21,3 -1.3,4.69 0.89,1.61 3.1,2.21 4.69,1.31 1.61,-1 2.21,-3.1 1.3,-4.7 -0.59,-1.1 -1.79,-1.8 -3,-1.8 z m 17.79,-11.6 c -1.5,1.1 -1.79,3.2 -0.7,4.69 1.1,1.6 3.31,1.91 4.8,0.8 1.5,-1.19 1.81,-3.3 0.7,-4.79 -0.7,-0.9 -1.7,-1.4 -2.7,-1.4 z m 16.51,-13.71 c -1.4,1.41 -1.51,3.51 -0.2,4.91 1.19,1.4 3.4,1.5 4.8,0.2 1.39,-1.3 1.5,-3.41 0.2,-4.9 l -2.5,-1.1 z m 15,-15.19 c -1.31,1.4 -1.2,3.59 0.2,4.8 1.39,1.29 3.6,1.2 4.89,-0.2 1.21,-1.5 1.1,-3.6 -0.29,-4.9 l -2.3,-0.8 c -0.91,0 -1.91,0.3 -2.5,1.1 z m 13.4,-16.6 c -1.1,1.5 -0.81,3.7 0.8,4.8 1.5,1.1 3.59,0.8 4.8,-0.7 1.09,-1.6 0.8,-3.7 -0.8,-4.81 l -2.01,-0.69 c -1.1,0 -2.1,0.5 -2.79,1.4"
         style="fill:#ffffff;fill-opacity:1;fill-rule:nonzero;stroke:none"
         transform="matrix(0.13333333,0,0,-0.13333333,0,496.81333)" />
      <path
         id="path83"
         d="m 2603.63,2923.92 -2.5,1 -0.7,1.1 -0.31,1.3 0.31,1.29 0.7,1.11 1.09,0.8 c 1.3,0.5 2.81,0.2 3.8,-0.8 l 0.71,-1.11 0.29,-1.29 -0.29,-1.3 -0.71,-1.1 -2.39,-1"
         style="fill:#ffffff;fill-opacity:1;fill-rule:nonzero;stroke:none"
         transform="matrix(0.13333333,0,0,-0.13333333,0,496.81333)" />
      <path
         id="path84"
         d="m 2757.72,2787.33 c 13.35,77.57 -9.03,196.17 -46.44,259.34 -12.32,20.81 -3.65,47.51 18.25,57.78 106.07,49.73 279.18,59.18 445.49,33.15 191.94,-30.03 525.76,-175.26 623.53,-315.45 -124.3,-133.17 -391.09,-280.41 -396.62,-455.67 -134.96,216.27 -350.9,349.27 -607.15,373.06 -24.02,2.23 -41.15,24.01 -37.06,47.79"
         style="fill:#17282f;fill-opacity:1;fill-rule:nonzero;stroke:none"
         transform="matrix(0.13333333,0,0,-0.13333333,0,496.81333)" />
      <path
         id="path85"
         d="m 3776.98,2712.41 c -3.75,0 -7.41,1.91 -9.49,5.35 -88.01,145.74 -416.15,310.6 -594.42,350.63 -169.13,37.97 -337.83,36.7 -440.26,-3.34 -5.7,-2.22 -12.11,0.59 -14.34,6.28 -2.23,5.69 0.59,12.12 6.28,14.35 106.3,41.57 279.94,43.22 453.16,4.31 179.92,-40.4 514.4,-204.9 608.53,-360.78 3.16,-5.23 1.48,-12.04 -3.75,-15.2 -1.79,-1.08 -3.76,-1.6 -5.71,-1.6"
         style="fill:#040606;fill-opacity:1;fill-rule:nonzero;stroke:none"
         transform="matrix(0.13333333,0,0,-0.13333333,0,496.81333)" />
      <path
         id="path86"
         d="m 3283,2561.59 c -22.83,17.89 -45.22,33.94 -66.68,47.67 -143.04,91.53 -298.75,148.13 -409.25,148.13 -2.97,0 -5.91,-0.04 -8.82,-0.12 -0.1,-0.01 -0.21,-0.01 -0.31,-0.01 -2.99,0 -5.29,2.45 -5.36,5.41 -0.07,3.05 2.34,5.59 5.4,5.67 2.47,0.06 4.98,0.09 7.5,0.09 112.86,0 271.4,-56.81 416.8,-149.85 19.49,-12.48 40.63,-27.64 62.73,-44.95 -0.73,-4.02 -1.4,-8.02 -2.01,-12.04"
         style="fill:#2b3c43;fill-opacity:1;fill-rule:nonzero;stroke:none"
         transform="matrix(0.13333333,0,0,-0.13333333,0,496.81333)" />
      <path
         id="path87"
         d="m 3400.17,113.23 h 666.29 c 68.86,0 93.22,91.372 33.38,125.469 -182.94,104.242 -435.16,235.563 -544.83,235.563 -213.54,0 -154.84,-361.032 -154.84,-361.032"
         style="fill:#17282f;fill-opacity:1;fill-rule:nonzero;stroke:none"
         transform="matrix(0.13333333,0,0,-0.13333333,0,496.81333)" />
      <path
         id="path88"
         d="m 3331.83,151.531 c 312.99,51.66 368.95,253.969 368.95,253.969 L 3342.9,390.738 3331.83,151.531"
         style="fill:#040606;fill-opacity:1;fill-rule:nonzero;stroke:none"
         transform="matrix(0.13333333,0,0,-0.13333333,0,496.81333)" />
      <path
         id="path89"
         d="m 3988.88,874.289 c 0,-313.379 -254.04,-567.418 -567.42,-567.418 -313.38,0 -567.43,254.039 -567.43,567.418 0,313.381 254.05,567.421 567.43,567.421 313.38,0 567.42,-254.04 567.42,-567.421"
         style="fill:#406fbf;fill-opacity:1;fill-rule:nonzero;stroke:none"
         transform="matrix(0.13333333,0,0,-0.13333333,0,496.81333)" />
      <path
         id="path90"
         d="m 3473.76,343.09 c -41.23,0 -82.07,6.801 -121.08,21.121 -195.02,71.598 -269.97,303.988 -167.39,519.07 52.98,111.098 142.96,195.839 244.46,241.949 3.43,-14.37 5.89,-29.24 7.23,-44.55 69.92,-68.27 156.94,-93.871 232.77,-93.871 88.68,0 162.06,35.021 174.81,77.771 100.58,-105.432 124.52,-277.951 46.97,-440.568 C 3809.47,451.949 3638.65,343.09 3473.76,343.09"
         style="fill:#3b69bb;fill-opacity:1;fill-rule:nonzero;stroke:none"
         transform="matrix(0.13333333,0,0,-0.13333333,0,496.81333)" />
      <path
         id="path91"
         d="m 3069.1,1213.51 c -100.1,0 -181.55,-152.17 -181.55,-339.221 0,-187.039 81.45,-339.211 181.55,-339.211 100.11,0 181.56,152.172 181.56,339.211 0,187.051 -81.45,339.221 -181.56,339.221 z m 0,-689.51 c -106.21,0 -192.62,157.141 -192.62,350.289 0,193.151 86.41,350.291 192.62,350.291 106.21,0 192.63,-157.14 192.63,-350.291 C 3261.73,681.141 3175.31,524 3069.1,524"
         style="fill:#ffffff;fill-opacity:1;fill-rule:nonzero;stroke:none"
         transform="matrix(0.13333333,0,0,-0.13333333,0,496.81333)" />
      <path
         id="path92"
         d="m 3069.12,1170.22 -2.1,0.4 -1.79,1.2 -1.2,1.8 -0.4,2.1 0.4,2.1 1.2,1.7 1.79,1.2 c 1.3,0.6 2.81,0.6 4.2,0 l 1.7,-1.2 1.2,-1.7 0.5,-2.1 -0.5,-2.1 -1.2,-1.8 -1.7,-1.2 -2.1,-0.4"
         style="fill:#ffffff;fill-opacity:1;fill-rule:nonzero;stroke:none"
         transform="matrix(0.13333333,0,0,-0.13333333,0,496.81333)" />
      <path
         id="path93"
         d="m 3099.22,1163.82 c -2.79,1.2 -4.09,4.4 -2.9,7.2 1.2,2.8 4.41,4.1 7.21,2.9 2.79,-1.2 4.1,-4.4 2.9,-7.2 -0.91,-2.1 -2.9,-3.3 -5.11,-3.3 z m 26.51,-16.91 c -2.31,2.01 -2.6,5.41 -0.6,7.81 1.99,2.3 5.39,2.5 7.79,0.6 2.21,-2 2.5,-5.5 0.5,-7.8 -1,-1.2 -2.6,-1.9 -4.09,-1.9 -1.31,0 -2.5,0.5 -3.6,1.29 z m 22,-23.29 v 0 c -1.91,2.4 -1.41,5.79 0.99,7.7 2.31,1.8 5.8,1.4 7.6,-1 1.91,-2.4 1.41,-5.8 -1,-7.7 -0.99,-0.8 -2.09,-1.11 -3.3,-1.11 -1.6,0 -3.2,0.71 -4.29,2.11 z m 17.79,-27.11 v 0 c -1.4,2.61 -0.5,6.01 2.11,7.5 2.6,1.41 6,0.51 7.39,-2.1 1.51,-2.59 0.61,-5.99 -2,-7.5 l -2.7,-0.69 c -1.9,0 -3.79,1 -4.8,2.79 z m 14.4,-29.29 c -1.2,2.8 0.1,6 2.9,7.19 2.81,1.21 6,-0.09 7.2,-2.9 1.2,-2.79 -0.1,-5.99 -2.9,-7.19 l -2.2,-0.4 c -2.1,0 -4.1,1.2 -5,3.3 z m 11.51,-30.71 c -0.91,2.9 0.69,6.01 3.59,6.91 2.8,0.99 5.9,-0.6 6.91,-3.5 0.89,-2.9 -0.61,-5.91 -3.51,-6.9 l -1.7,-0.2 c -2.39,0 -4.49,1.4 -5.29,3.69 z m 9.09,-31.49 c -0.69,2.9 1.1,5.8 4,6.6 2.9,0.7 5.9,-1.1 6.61,-4 0.7,-2.9 -1.11,-5.9 -4.01,-6.7 l -1.3,-0.1 c -2.5,0 -4.69,1.7 -5.3,4.2 z m 6.71,-32.2 c -0.51,2.899 1.49,5.801 4.49,6.301 3.01,0.5 5.8,-1.402 6.3,-4.402 0.51,-3 -1.4,-5.899 -4.39,-6.399 l -0.9,-0.101 c -2.6,0 -5,1.902 -5.5,4.601 z m 4.79,-32.601 c -0.4,3 1.8,5.703 4.81,6.101 3,0.301 5.69,-1.91 5.99,-4.898 0.31,-3 -1.79,-5.703 -4.8,-6 l -0.6,-0.102 c -2.8,0 -5.09,2.102 -5.4,4.899 z m 2.71,-32.797 v 0 c -0.21,3 2.2,5.598 5.19,5.699 3,0.199 5.6,-2.101 5.81,-5.101 h -0.1 c 0.19,-3 -2.1,-5.598 -5.11,-5.801 h -0.29 c -2.9,0 -5.31,2.301 -5.5,5.203"
         style="fill:#ffffff;fill-opacity:1;fill-rule:nonzero;stroke:none"
         transform="matrix(0.13333333,0,0,-0.13333333,0,496.81333)" />
      <path
         id="path94"
         d="m 3221.13,868.82 -2.1,0.399 -1.8,1.203 -1.1,1.797 -0.5,2.101 0.5,2.102 1.1,1.699 1.8,1.199 c 1.29,0.602 2.9,0.602 4.2,0 l 1.79,-1.199 1.2,-1.699 0.4,-2.102 -0.4,-2.101 -1.2,-1.797 c -0.99,-1.012 -2.39,-1.602 -3.89,-1.602"
         style="fill:#ffffff;fill-opacity:1;fill-rule:nonzero;stroke:none"
         transform="matrix(0.13333333,0,0,-0.13333333,0,496.81333)" />
      <path
         id="path95"
         d="m 3443.1,113.23 h -666.28 c -68.87,0 -93.22,91.372 -33.38,125.469 182.93,104.242 435.16,235.563 544.82,235.563 213.54,0 154.84,-361.032 154.84,-361.032"
         style="fill:#17282f;fill-opacity:1;fill-rule:nonzero;stroke:none"
         transform="matrix(0.13333333,0,0,-0.13333333,0,496.81333)" />
      <path
         id="path96"
         d="m 4118.22,2666.46 c -11.73,29.09 -26.55,57.05 -44.03,83.1 l 9.2,6.17 c 17.9,-26.69 33.07,-55.34 45.1,-85.13 l -10.27,-4.14"
         style="fill:#406fbf;fill-opacity:1;fill-rule:nonzero;stroke:none"
         transform="matrix(0.13333333,0,0,-0.13333333,0,496.81333)" />
      <path
         id="path97"
         d="m 4040.2,2794.04 c -55.46,63.91 -127.68,110.7 -208.84,135.31 l 3.2,10.58 c 83.18,-25.2 157.17,-73.15 214,-138.65 l -8.36,-7.24"
         style="fill:#406fbf;fill-opacity:1;fill-rule:nonzero;stroke:none"
         transform="matrix(0.13333333,0,0,-0.13333333,0,496.81333)" />
      <path
         id="path98"
         d="m 4105.07,2376.03 c -67.68,-223.29 -303.55,-349.43 -526.84,-281.74 -223.28,67.67 -349.42,303.54 -281.74,526.82 67.69,223.3 303.56,349.43 526.84,281.75 223.28,-67.68 349.42,-303.55 281.74,-526.83"
         style="fill:#406fbf;fill-opacity:1;fill-rule:nonzero;stroke:none"
         transform="matrix(0.13333333,0,0,-0.13333333,0,496.81333)" />
      <path
         id="path99"
         d="m 3953.08,2185.4 c 12.38,32.04 21.64,60.22 26.26,85.16 17.68,95.47 -79.1,148.02 -165.25,148.02 -48.69,0 -93.99,-16.79 -113.31,-52.1 -33.34,-60.92 -132.7,-118.51 -216.07,-139.38 -41.35,111.31 9.83,259.33 132.85,358.34 74.96,60.33 162.01,90.71 241.18,90.71 74.79,0 142.54,-27.1 186.45,-81.67 88.69,-110.2 47.15,-291.47 -92.11,-409.08"
         style="fill:#3b69bb;fill-opacity:1;fill-rule:nonzero;stroke:none"
         transform="matrix(0.13333333,0,0,-0.13333333,0,496.81333)" />
      <path
         id="path100"
         d="m 3528.42,2808.08 c -84.81,0 -172.47,-79.01 -207.43,-194.38 -19.61,-64.67 -19.88,-130.91 -0.79,-186.51 18.9,-55.06 54.56,-93.04 100.41,-106.93 45.85,-13.9 96.59,-2.12 142.88,33.19 46.75,35.64 83.29,90.89 102.89,155.54 40.3,132.93 -4.4,264.58 -99.62,293.44 -12.58,3.82 -25.44,5.65 -38.34,5.65 z m -69.21,-503.02 c -14.02,0 -27.87,2.02 -41.36,6.1 -48.84,14.81 -86.71,54.92 -106.65,112.94 -19.73,57.48 -19.49,125.79 0.69,192.36 41.8,137.93 157.34,225.47 257.62,195.08 100.25,-30.4 147.78,-167.35 105.97,-305.3 -20.17,-66.56 -57.91,-123.5 -106.23,-160.35 -35.32,-26.93 -73.26,-40.83 -110.04,-40.83"
         style="fill:#ffffff;fill-opacity:1;fill-rule:nonzero;stroke:none"
         transform="matrix(0.13333333,0,0,-0.13333333,0,496.81333)" />
      <path
         id="path101"
         d="m 3558.82,2771.42 c -1.3,0 -2.5,0.49 -3.4,1.4 -0.8,0.79 -1.3,2 -1.3,3.29 l 0.31,1.81 0.99,1.49 1.6,1.01 c 1.7,0.69 3.8,0.3 5.1,-1.01 l 1.01,-1.49 0.29,-1.81 c 0,-1.29 -0.4,-2.5 -1.3,-3.29 l -1.49,-1.1 -1.81,-0.3"
         style="fill:#ffffff;fill-opacity:1;fill-rule:nonzero;stroke:none"
         transform="matrix(0.13333333,0,0,-0.13333333,0,496.81333)" />
      <path
         id="path102"
         d="m 3583.02,2759.62 v 0 c -2.2,1.4 -2.79,4.3 -1.4,6.49 1.4,2.21 4.41,2.81 6.51,1.31 h 0.1 c 2.09,-1.4 2.69,-4.3 1.29,-6.5 -0.89,-1.3 -2.4,-2.1 -4,-2.1 z m 21.5,-18.6 c -1.79,1.9 -1.6,4.9 0.31,6.6 2,1.79 4.9,1.6 6.7,-0.3 1.7,-1.9 1.49,-4.9 -0.4,-6.7 -0.9,-0.8 -2.01,-1.21 -3.11,-1.21 -1.3,0 -2.6,0.61 -3.5,1.61 z m 16.8,-23.3 v 0 c -1.3,2.3 -0.59,5.2 1.7,6.5 2.3,1.3 5.11,0.5 6.41,-1.8 1.3,-2.2 0.49,-5.1 -1.7,-6.4 l -2.31,-0.6 c -1.7,0 -3.3,0.8 -4.1,2.3 z m 12.21,-26.21 c -0.9,2.5 0.29,5.21 2.69,6.11 2.5,0.9 5.21,-0.4 6.11,-2.8 0.9,-2.4 -0.4,-5.1 -2.81,-6 l -1.6,-0.3 c -2,0 -3.7,1.1 -4.39,2.99 z m 8,-27.9 c -0.61,2.61 1.1,5.11 3.6,5.61 2.6,0.6 5,-1 5.6,-3.6 0.59,-2.5 -1.11,-5 -3.61,-5.6 l -0.99,-0.1 c -2.2,0 -4.11,1.5 -4.6,3.69 z m 4.39,-28.79 v 0.1 c -0.19,2.5 1.71,4.8 4.21,5.1 2.6,0.2 4.89,-1.7 5.1,-4.3 0.29,-2.6 -1.6,-4.9 -4.2,-5.1 h -0.4 c -2.4,0 -4.5,1.8 -4.71,4.2 z m 5.8,-33.9 c -2.69,0 -4.7,2.2 -4.7,4.7 v 0.1 c 0,2.6 2.2,4.6 4.81,4.6 2.6,0 4.7,-2.2 4.6,-4.8 0,-2.5 -2.1,-4.6 -4.71,-4.6 z m -2.39,-29.6 c -2.61,0.3 -4.5,2.6 -4.2,5.19 0.29,2.5 2.69,4.41 5.19,4.11 2.6,-0.3 4.51,-2.6 4.2,-5.2 -0.3,-2.4 -2.29,-4.2 -4.69,-4.2 z m -5.21,-29.3 c -2.5,0.5 -4.2,3 -3.6,5.6 0.51,2.5 3.01,4.1 5.51,3.6 2.6,-0.5 4.2,-3 3.7,-5.6 -0.51,-2.2 -2.5,-3.71 -4.71,-3.71 l -0.9,0.11"
         style="fill:#ffffff;fill-opacity:1;fill-rule:nonzero;stroke:none"
         transform="matrix(0.13333333,0,0,-0.13333333,0,496.81333)" />
      <path
         id="path103"
         d="m 3637.73,2513.02 c -1.3,0 -2.41,0.4 -3.3,1.3 l -1.11,1.6 -0.3,1.8 0.3,1.8 1.11,1.5 1.49,1 c 1.71,0.7 3.81,0.3 5.11,-1 0.9,-0.9 1.39,-2.1 1.39,-3.3 0,-1.3 -0.49,-2.5 -1.39,-3.4 l -1.51,-1 -1.79,-0.3"
         style="fill:#ffffff;fill-opacity:1;fill-rule:nonzero;stroke:none"
         transform="matrix(0.13333333,0,0,-0.13333333,0,496.81333)" />
      <path
         id="path104"
         d="m 3436.98,1080.68 c -15.52,177.1 -180.79,293.32 -253.85,308.65 14.03,242.94 90.48,736.41 186,847.57 54.65,-57.35 278.15,31.81 331.65,129.58 53.5,97.78 306.23,53.51 278.56,-95.92 -27.67,-149.43 -222.26,-415.33 -253.65,-931.6 94.08,-76.57 130.67,-151.9 120.54,-266.25 -9.55,-83.651 -252.45,-145.14 -409.25,7.97"
         style="fill:#17282f;fill-opacity:1;fill-rule:nonzero;stroke:none"
         transform="matrix(0.13333333,0,0,-0.13333333,0,496.81333)" />
      <path
         id="path105"
         d="m 3397.33,1269.77 c -1.87,0 -3.68,0.94 -4.73,2.64 -1.6,2.61 -0.78,6.02 1.83,7.61 90.8,55.59 220.42,65.82 281.35,65.82 11.31,0 20.26,-0.35 26.15,-0.83 3.04,-0.24 5.31,-2.92 5.06,-5.97 -0.23,-2.95 -2.86,-5.07 -5.68,-5.07 -0.1,0 -0.19,0 -0.28,0.01 -5.81,0.47 -14.65,0.82 -25.83,0.82 -59.75,0 -186.45,-10.01 -274.99,-64.21 -0.9,-0.56 -1.91,-0.82 -2.88,-0.82"
         style="fill:#2b3c43;fill-opacity:1;fill-rule:nonzero;stroke:none"
         transform="matrix(0.13333333,0,0,-0.13333333,0,496.81333)" />
      <path
         id="path106"
         d="m 3749.79,985.922 -2.24,0.226 c -5.99,1.231 -9.84,7.082 -8.61,13.071 24.49,119.361 -24.04,252.431 -120.77,331.151 -2.78,2.25 -4.29,5.7 -4.07,9.26 18.01,296.22 96.62,499.81 165.96,679.43 52.22,135.26 97.32,252.06 107.61,383.37 0.48,6.1 5.7,10.71 11.9,10.17 6.1,-0.48 10.65,-5.81 10.17,-11.91 -10.55,-134.52 -56.18,-252.73 -109.02,-389.6 -68.33,-176.98 -145.72,-377.44 -164.17,-667.2 100.01,-84.21 149.8,-223.73 124.07,-349.12 -1.08,-5.239 -5.69,-8.848 -10.83,-8.848"
         style="fill:#040606;fill-opacity:1;fill-rule:nonzero;stroke:none"
         transform="matrix(0.13333333,0,0,-0.13333333,0,496.81333)" />
      <path
         id="path107"
         d="m 1821.46,2512.54 c -6.73,0 -12.68,-1.77 -17.55,-5.3 -20.45,-14.87 -15.79,-56.25 10.37,-92.26 26.17,-35.99 64.09,-53.19 84.54,-38.36 20.44,14.86 15.79,56.24 -10.38,92.25 -12.83,17.65 -28.85,31.32 -45.1,38.48 -7.83,3.46 -15.23,5.19 -21.88,5.19 z m 60.03,-146.7 c -22.57,0 -50.88,17.17 -71.73,45.86 -27.98,38.5 -32.07,83.38 -9.13,100.05 11.34,8.24 27.32,8.49 44.96,0.72 17.15,-7.56 33.97,-21.87 47.37,-40.32 27.98,-38.5 32.08,-83.38 9.14,-100.05 -5.84,-4.25 -12.89,-6.26 -20.61,-6.26"
         style="fill:#ffffff;fill-opacity:1;fill-rule:nonzero;stroke:none"
         transform="matrix(0.13333333,0,0,-0.13333333,0,496.81333)" />
    </g>
  </g>
</svg>
